<svg width="100" height="100" viewBox="0 0 100 100" fill="none" xmlns="http://www.w3.org/2000/svg">
<g clip-path="url(#clip0_478_16)">
<path d="M50 100C53.3152 100 56.4946 98.683 58.8388 96.3388C61.183 93.9946 62.5 90.8152 62.5 87.5H37.5C37.5 90.8152 38.817 93.9946 41.1612 96.3388C43.5054 98.683 46.6848 100 50 100ZM56.2188 6.86876C56.306 5.99972 56.2101 5.12204 55.9373 4.29234C55.6645 3.46263 55.2208 2.69932 54.6349 2.05162C54.0489 1.40392 53.3337 0.886222 52.5354 0.531909C51.7371 0.177597 50.8734 -0.00546265 50 -0.00546265C49.1266 -0.00546265 48.2629 0.177597 47.4646 0.531909C46.6663 0.886222 45.9511 1.40392 45.3651 2.05162C44.7792 2.69932 44.3355 3.46263 44.0627 4.29234C43.7899 5.12204 43.694 5.99972 43.7812 6.86876C36.717 8.30564 30.3664 12.1398 25.8048 17.7219C21.2432 23.304 18.7509 30.2911 18.75 37.5C18.75 44.3625 15.625 75 6.25 81.25H93.75C84.375 75 81.25 44.3625 81.25 37.5C81.25 22.375 70.5 9.75 56.2188 6.86876Z" fill="black"/>
</g>
<defs>
<clipPath id="clip0_478_16">
<rect width="100" height="100" fill="white"/>
</clipPath>
</defs>
</svg>
