<svg width="100" height="100" viewBox="0 0 100 100" fill="none" xmlns="http://www.w3.org/2000/svg">
<g clip-path="url(#clip0_480_934)">
<path d="M25 3.125C25 2.2962 24.6708 1.50134 24.0847 0.915291C23.4987 0.32924 22.7038 0 21.875 0C21.0462 0 20.2513 0.32924 19.6653 0.915291C19.0792 1.50134 18.75 2.2962 18.75 3.125V6.25H12.5C9.18479 6.25 6.00537 7.56696 3.66117 9.91117C1.31696 12.2554 0 15.4348 0 18.75L0 25H100V18.75C100 15.4348 98.683 12.2554 96.3388 9.91117C93.9946 7.56696 90.8152 6.25 87.5 6.25H81.25V3.125C81.25 2.2962 80.9208 1.50134 80.3347 0.915291C79.7487 0.32924 78.9538 0 78.125 0C77.2962 0 76.5013 0.32924 75.9153 0.915291C75.3292 1.50134 75 2.2962 75 3.125V6.25H25V3.125ZM100 87.5V31.25H0V87.5C0 90.8152 1.31696 93.9946 3.66117 96.3388C6.00537 98.683 9.18479 100 12.5 100H87.5C90.8152 100 93.9946 98.683 96.3388 96.3388C98.683 93.9946 100 90.8152 100 87.5ZM78.125 43.75H84.375C85.2038 43.75 85.9987 44.0792 86.5847 44.6653C87.1708 45.2513 87.5 46.0462 87.5 46.875V53.125C87.5 53.9538 87.1708 54.7487 86.5847 55.3347C85.9987 55.9208 85.2038 56.25 84.375 56.25H78.125C77.2962 56.25 76.5013 55.9208 75.9153 55.3347C75.3292 54.7487 75 53.9538 75 53.125V46.875C75 46.0462 75.3292 45.2513 75.9153 44.6653C76.5013 44.0792 77.2962 43.75 78.125 43.75Z" fill="black"/>
</g>
<defs>
<clipPath id="clip0_480_934">
<rect width="100" height="100" fill="white"/>
</clipPath>
</defs>
</svg>
