<svg width="100" height="100" viewBox="0 0 100 100" fill="none" xmlns="http://www.w3.org/2000/svg">
<g clip-path="url(#clip0_478_34)">
<path d="M25 3.125C25 2.2962 24.6708 1.50134 24.0847 0.915291C23.4987 0.32924 22.7038 0 21.875 0C21.0462 0 20.2513 0.32924 19.6653 0.915291C19.0792 1.50134 18.75 2.2962 18.75 3.125V6.25H12.5C9.18479 6.25 6.00537 7.56696 3.66117 9.91116C1.31696 12.2554 0 15.4348 0 18.75L0 25H100V18.75C100 15.4348 98.683 12.2554 96.3388 9.91116C93.9946 7.56696 90.8152 6.25 87.5 6.25H81.25V3.125C81.25 2.2962 80.9208 1.50134 80.3347 0.915291C79.7487 0.32924 78.9538 0 78.125 0C77.2962 0 76.5013 0.32924 75.9153 0.915291C75.3292 1.50134 75 2.2962 75 3.125V6.25H25V3.125ZM58.7625 64.0375C62.6688 64.0375 66.1625 61.0125 66.1625 56.6625C66.1625 51.4625 62.8687 48.975 58.9125 48.975C55.25 48.975 51.6125 51.3937 51.6125 56.5375C51.6125 61.6437 55.0063 64.0375 58.7625 64.0375Z" fill="black"/>
<path d="M100 87.5V31.25H0V87.5C0 90.8152 1.31696 93.9946 3.66117 96.3388C6.00537 98.683 9.18479 100 12.5 100H87.5C90.8152 100 93.9946 98.683 96.3388 96.3388C98.683 93.9946 100 90.8152 100 87.5ZM58.35 79.9375C51.4125 79.9375 48 75.1438 47.7062 71.1438H51.975C52.2438 73.4563 54.3937 76.2687 58.5437 76.2687C63.8187 76.2687 66.675 70.9687 66.7 62.7437H66.5312C65.575 65.3312 62.55 67.6813 57.8875 67.6813C52.5625 67.6813 47.4125 63.8688 47.4125 56.6187C47.4125 49.5125 52.8563 45.3125 58.6438 45.3125C65.9688 45.3125 70.85 49.9 70.85 61.9875C70.85 73.2687 66.2125 79.9312 58.35 79.9312V79.9375ZM40.2875 45.9688V79.2938H36.0625V50.4938H35.9875C34.175 51.4688 30.4688 53.7437 28.125 55.35V51C30.7553 49.1572 33.4958 47.4769 36.3313 45.9688H40.2812H40.2875Z" fill="black"/>
</g>
<defs>
<clipPath id="clip0_478_34">
<rect width="100" height="100" fill="white"/>
</clipPath>
</defs>
</svg>
