<svg width="100" height="100" viewBox="0 0 100 100" fill="none" xmlns="http://www.w3.org/2000/svg">
<g clip-path="url(#clip0_478_39)">
<path d="M87.5 6.25C89.1576 6.25 90.7473 6.90848 91.9194 8.08058C93.0915 9.25268 93.75 10.8424 93.75 12.5V87.5C93.75 89.1576 93.0915 90.7473 91.9194 91.9194C90.7473 93.0915 89.1576 93.75 87.5 93.75H12.5C10.8424 93.75 9.25268 93.0915 8.08058 91.9194C6.90848 90.7473 6.25 89.1576 6.25 87.5V12.5C6.25 10.8424 6.90848 9.25268 8.08058 8.08058C9.25268 6.90848 10.8424 6.25 12.5 6.25H87.5ZM12.5 0C9.18479 0 6.00537 1.31696 3.66117 3.66117C1.31696 6.00537 0 9.18479 0 12.5L0 87.5C0 90.8152 1.31696 93.9946 3.66117 96.3388C6.00537 98.683 9.18479 100 12.5 100H87.5C90.8152 100 93.9946 98.683 96.3388 96.3388C98.683 93.9946 100 90.8152 100 87.5V12.5C100 9.18479 98.683 6.00537 96.3388 3.66117C93.9946 1.31696 90.8152 0 87.5 0L12.5 0Z" fill="black"/>
<path d="M68.5625 31.0625C69.4372 30.1954 70.618 29.7075 71.8496 29.7041C73.0812 29.7007 74.2646 30.1821 75.1441 31.0443C76.0235 31.9066 76.5283 33.0802 76.5493 34.3117C76.5703 35.5431 76.1058 36.7333 75.2563 37.625L50.3063 68.8125C49.8774 69.2744 49.3599 69.645 48.7846 69.9023C48.2092 70.1596 47.5879 70.2982 46.9578 70.3099C46.3277 70.3215 45.7017 70.206 45.1172 69.9702C44.5328 69.7344 44.0019 69.3832 43.5563 68.9375L27.025 52.4C26.5645 51.9709 26.1951 51.4534 25.9389 50.8784C25.6827 50.3034 25.5449 49.6827 25.5338 49.0533C25.5227 48.4239 25.6385 47.7987 25.8742 47.215C26.11 46.6313 26.4609 46.1011 26.906 45.656C27.3511 45.2109 27.8813 44.86 28.465 44.6242C29.0487 44.3885 29.6739 44.2727 30.3033 44.2838C30.9327 44.2949 31.5534 44.4327 32.1284 44.6889C32.7034 44.9451 33.2209 45.3145 33.65 45.775L46.7375 58.8562L68.4438 31.2C68.4825 31.1516 68.5242 31.1056 68.5688 31.0625H68.5625Z" fill="black"/>
</g>
<defs>
<clipPath id="clip0_478_39">
<rect width="100" height="100" fill="white"/>
</clipPath>
</defs>
</svg>
