<svg width="100" height="100" viewBox="0 0 100 100" fill="none" xmlns="http://www.w3.org/2000/svg">
<path fill-rule="evenodd" clip-rule="evenodd" d="M47.7875 29.0375C48.0778 28.7465 48.4226 28.5156 48.8023 28.358C49.1819 28.2005 49.5889 28.1194 50 28.1194C50.411 28.1194 50.818 28.2005 51.1977 28.358C51.5773 28.5156 51.9222 28.7465 52.2125 29.0375L89.7125 66.5375C90.2993 67.1243 90.6289 67.9202 90.6289 68.75C90.6289 69.5798 90.2993 70.3757 89.7125 70.9625C89.1257 71.5493 88.3298 71.8789 87.5 71.8789C86.6701 71.8789 85.8743 71.5493 85.2875 70.9625L50 35.6687L14.7125 70.9625C14.1257 71.5493 13.3298 71.8789 12.5 71.8789C11.6701 71.8789 10.8743 71.5493 10.2875 70.9625C9.70069 70.3757 9.37103 69.5798 9.37103 68.75C9.37103 67.9202 9.70069 67.1243 10.2875 66.5375L47.7875 29.0375Z" fill="black"/>
</svg>
