<svg width="100" height="100" viewBox="0 0 100 100" fill="none" xmlns="http://www.w3.org/2000/svg">
<path d="M0.3125 22.2188C0.942614 19.4578 2.4916 16.9926 4.70576 15.2269C6.91992 13.4613 9.66803 12.4998 12.5 12.5H87.5C90.332 12.4998 93.0801 13.4613 95.2942 15.2269C97.5084 16.9926 99.0574 19.4578 99.6875 22.2188L50 52.5875L0.3125 22.2188ZM0 29.3563V73.7562L36.2687 51.5187L0 29.3563ZM42.2563 55.1875L1.19375 80.3563C2.20829 82.4955 3.80954 84.3027 5.81113 85.5674C7.81273 86.8321 10.1323 87.5023 12.5 87.5H87.5C89.8673 87.5005 92.186 86.8288 94.1865 85.5631C96.1869 84.2973 97.7868 82.4895 98.8 80.35L57.7375 55.1813L50 59.9125L42.2563 55.1813V55.1875ZM63.7312 51.525L100 73.7562V29.3563L63.7312 51.5187V51.525Z" fill="black"/>
</svg>
