<svg width="100" height="100" viewBox="0 0 100 100" fill="none" xmlns="http://www.w3.org/2000/svg">
<g clip-path="url(#clip0_490_8)">
<path d="M83.4625 4.03749C82.7619 3.33601 81.9299 2.77951 81.014 2.39982C80.0982 2.02014 79.1164 1.82471 78.125 1.82471C77.1336 1.82471 76.1518 2.02014 75.236 2.39982C74.3201 2.77951 73.4881 3.33601 72.7875 4.03749L53.125 23.7062L49.0875 19.6625C48.5007 19.0757 47.7048 18.746 46.875 18.746C46.0452 18.746 45.2493 19.0757 44.6625 19.6625C44.0757 20.2493 43.746 21.0451 43.746 21.875C43.746 22.7048 44.0757 23.5007 44.6625 24.0875L51.8313 31.25L7.1625 75.9125C6.87249 76.2032 6.64262 76.5483 6.48605 76.9279C6.32948 77.3076 6.24927 77.7143 6.25 78.125V89.3312L0.912499 94.6625C0.326536 95.2493 -0.00232477 96.0448 -0.00173872 96.8741C-0.00115267 97.7033 0.328833 98.4984 0.915624 99.0844C1.50242 99.6703 2.29795 99.9992 3.12721 99.9986C3.95647 99.998 4.75154 99.668 5.3375 99.0812L10.6687 93.75H21.875C22.2857 93.7507 22.6924 93.6705 23.0721 93.5139C23.4517 93.3574 23.7968 93.1275 24.0875 92.8375L68.75 48.1687L75.9125 55.3375C76.4993 55.9243 77.2952 56.2539 78.125 56.2539C78.9548 56.2539 79.7507 55.9243 80.3375 55.3375C80.9243 54.7507 81.2539 53.9548 81.2539 53.125C81.2539 52.2951 80.9243 51.4993 80.3375 50.9125L76.2937 46.875L95.9625 27.2125C96.664 26.5119 97.2205 25.6798 97.6002 24.764C97.9799 23.8481 98.1753 22.8664 98.1753 21.875C98.1753 20.8835 97.9799 19.9018 97.6002 18.986C97.2205 18.0701 96.664 17.2381 95.9625 16.5375L83.4625 4.03749ZM12.5 79.4187L56.25 35.6687L64.3313 43.75L20.5812 87.5H12.5V79.4187Z" fill="black"/>
</g>
<defs>
<clipPath id="clip0_490_8">
<rect width="100" height="100" fill="white"/>
</clipPath>
</defs>
</svg>
