<svg width="100" height="100" viewBox="0 0 100 100" fill="none" xmlns="http://www.w3.org/2000/svg">
<path fill-rule="evenodd" clip-rule="evenodd" d="M50 20.5813L87.5 58.0813V84.375C87.5 86.8614 86.5123 89.246 84.7541 91.0041C82.996 92.7623 80.6114 93.75 78.125 93.75H21.875C19.3886 93.75 17.004 92.7623 15.2459 91.0041C13.4877 89.246 12.5 86.8614 12.5 84.375V58.0813L50 20.5813ZM81.25 15.625V37.5L68.75 25V15.625C68.75 14.7962 69.0792 14.0013 69.6653 13.4153C70.2513 12.8292 71.0462 12.5 71.875 12.5H78.125C78.9538 12.5 79.7487 12.8292 80.3347 13.4153C80.9208 14.0013 81.25 14.7962 81.25 15.625Z" fill="black"/>
<path fill-rule="evenodd" clip-rule="evenodd" d="M45.5812 9.375C46.7533 8.20331 48.3427 7.54509 50 7.54509C51.6573 7.54509 53.2467 8.20331 54.4187 9.375L95.9625 50.9125C96.5493 51.4993 96.8789 52.2952 96.8789 53.125C96.8789 53.9548 96.5493 54.7507 95.9625 55.3375C95.3757 55.9243 94.5798 56.2539 93.75 56.2539C92.9201 56.2539 92.1243 55.9243 91.5375 55.3375L50 13.7938L8.46248 55.3375C7.87569 55.9243 7.07983 56.2539 6.24998 56.2539C5.42013 56.2539 4.62427 55.9243 4.03748 55.3375C3.45069 54.7507 3.12103 53.9548 3.12103 53.125C3.12103 52.2952 3.45069 51.4993 4.03748 50.9125L45.5812 9.375Z" fill="black"/>
</svg>
