<svg width="100" height="100" viewBox="0 0 100 100" fill="none" xmlns="http://www.w3.org/2000/svg">
<g clip-path="url(#clip0_491_118)">
<path d="M62.5 12.5C62.5007 15.2717 61.5801 17.9651 59.8831 20.1566C58.186 22.348 55.8087 23.9133 53.125 24.6063V56.4C58.5188 56.9188 62.5 58.7562 62.5 60.9375C62.5 63.525 56.9063 65.625 50 65.625C43.0938 65.625 37.5 63.525 37.5 60.9375C37.5 58.75 41.4813 56.9188 46.875 56.4V24.6063C44.6115 24.0218 42.5572 22.8143 40.9454 21.1209C39.3337 19.4275 38.2292 17.316 37.7573 15.0264C37.2854 12.7367 37.4651 10.3606 38.2759 8.16792C39.0867 5.97524 40.4961 4.05387 42.3441 2.62204C44.1921 1.1902 46.4046 0.305303 48.7303 0.0678354C51.056 -0.169632 53.4017 0.249854 55.5009 1.27865C57.6001 2.30744 59.3688 3.90431 60.606 5.88788C61.8432 7.87145 62.4994 10.1622 62.5 12.5Z" fill="black"/>
<path d="M9.45625e-10 60.4062V71.1375C0.00061968 72.2979 0.324269 73.4352 0.934702 74.422C1.54513 75.4089 2.41824 76.2063 3.45625 76.725L44.4125 97.2063C46.1475 98.0732 48.0604 98.5246 50 98.5246C51.9396 98.5246 53.8525 98.0732 55.5875 97.2063L96.5437 76.725C97.5817 76.2063 98.4549 75.4089 99.0653 74.422C99.6757 73.4352 99.9994 72.2979 100 71.1375V60.4062C100 59.7812 99.625 59.2188 99.05 58.9688L59.375 41.9688V48.175L92.0438 61.7875C92.1849 61.8469 92.3055 61.9465 92.3906 62.074C92.4756 62.2014 92.5213 62.351 92.5219 62.5042C92.5226 62.6574 92.4782 62.8074 92.3943 62.9355C92.3104 63.0637 92.1907 63.1644 92.05 63.225L54.925 79.1375C53.3688 79.8046 51.6932 80.1486 50 80.1486C48.3068 80.1486 46.6312 79.8046 45.075 79.1375L7.95 63.225C7.80933 63.1644 7.68959 63.0637 7.60568 62.9355C7.52177 62.8074 7.47738 62.6574 7.47805 62.5042C7.47872 62.351 7.5244 62.2014 7.60942 62.074C7.69445 61.9465 7.81506 61.8469 7.95625 61.7875L40.625 48.175L40.5438 42L0.95 58.9688C0.668165 59.0888 0.427851 59.2891 0.258944 59.5447C0.0900369 59.8003 -1.0655e-05 60.0999 9.45625e-10 60.4062H9.45625e-10Z" fill="black"/>
</g>
<defs>
<clipPath id="clip0_491_118">
<rect width="100" height="100" fill="white"/>
</clipPath>
</defs>
</svg>
