<svg width="100" height="100" viewBox="0 0 100 100" fill="none" xmlns="http://www.w3.org/2000/svg">
<path fill-rule="evenodd" clip-rule="evenodd" d="M0 3.125C0 2.2962 0.32924 1.50134 0.915291 0.915291C1.50134 0.32924 2.2962 0 3.125 0L15.625 0C16.4538 0 17.2487 0.32924 17.8347 0.915291C18.4208 1.50134 18.75 2.2962 18.75 3.125C18.75 3.9538 18.4208 4.74866 17.8347 5.33471C17.2487 5.92076 16.4538 6.25 15.625 6.25H3.125C2.2962 6.25 1.50134 5.92076 0.915291 5.33471C0.32924 4.74866 0 3.9538 0 3.125ZM25 3.125C25 2.2962 25.3292 1.50134 25.9153 0.915291C26.5013 0.32924 27.2962 0 28.125 0L90.625 0C91.4538 0 92.2487 0.32924 92.8347 0.915291C93.4208 1.50134 93.75 2.2962 93.75 3.125C93.75 3.9538 93.4208 4.74866 92.8347 5.33471C92.2487 5.92076 91.4538 6.25 90.625 6.25H28.125C27.2962 6.25 26.5013 5.92076 25.9153 5.33471C25.3292 4.74866 25 3.9538 25 3.125ZM0 15.625C0 14.7962 0.32924 14.0013 0.915291 13.4153C1.50134 12.8292 2.2962 12.5 3.125 12.5H15.625C16.4538 12.5 17.2487 12.8292 17.8347 13.4153C18.4208 14.0013 18.75 14.7962 18.75 15.625C18.75 16.4538 18.4208 17.2487 17.8347 17.8347C17.2487 18.4208 16.4538 18.75 15.625 18.75H3.125C2.2962 18.75 1.50134 18.4208 0.915291 17.8347C0.32924 17.2487 0 16.4538 0 15.625ZM25 15.625C25 14.7962 25.3292 14.0013 25.9153 13.4153C26.5013 12.8292 27.2962 12.5 28.125 12.5H84.375C85.2038 12.5 85.9987 12.8292 86.5847 13.4153C87.1708 14.0013 87.5 14.7962 87.5 15.625C87.5 16.4538 87.1708 17.2487 86.5847 17.8347C85.9987 18.4208 85.2038 18.75 84.375 18.75H28.125C27.2962 18.75 26.5013 18.4208 25.9153 17.8347C25.3292 17.2487 25 16.4538 25 15.625ZM0 28.125C0 27.2962 0.32924 26.5013 0.915291 25.9153C1.50134 25.3292 2.2962 25 3.125 25H15.625C16.4538 25 17.2487 25.3292 17.8347 25.9153C18.4208 26.5013 18.75 27.2962 18.75 28.125C18.75 28.9538 18.4208 29.7487 17.8347 30.3347C17.2487 30.9208 16.4538 31.25 15.625 31.25H3.125C2.2962 31.25 1.50134 30.9208 0.915291 30.3347C0.32924 29.7487 0 28.9538 0 28.125ZM25 28.125C25 27.2962 25.3292 26.5013 25.9153 25.9153C26.5013 25.3292 27.2962 25 28.125 25H96.875C97.7038 25 98.4987 25.3292 99.0847 25.9153C99.6708 26.5013 100 27.2962 100 28.125C100 28.9538 99.6708 29.7487 99.0847 30.3347C98.4987 30.9208 97.7038 31.25 96.875 31.25H28.125C27.2962 31.25 26.5013 30.9208 25.9153 30.3347C25.3292 29.7487 25 28.9538 25 28.125ZM0 40.625C0 39.7962 0.32924 39.0013 0.915291 38.4153C1.50134 37.8292 2.2962 37.5 3.125 37.5H15.625C16.4538 37.5 17.2487 37.8292 17.8347 38.4153C18.4208 39.0013 18.75 39.7962 18.75 40.625C18.75 41.4538 18.4208 42.2487 17.8347 42.8347C17.2487 43.4208 16.4538 43.75 15.625 43.75H3.125C2.2962 43.75 1.50134 43.4208 0.915291 42.8347C0.32924 42.2487 0 41.4538 0 40.625ZM25 40.625C25 39.7962 25.3292 39.0013 25.9153 38.4153C26.5013 37.8292 27.2962 37.5 28.125 37.5H78.125C78.9538 37.5 79.7487 37.8292 80.3347 38.4153C80.9208 39.0013 81.25 39.7962 81.25 40.625C81.25 41.4538 80.9208 42.2487 80.3347 42.8347C79.7487 43.4208 78.9538 43.75 78.125 43.75H28.125C27.2962 43.75 26.5013 43.4208 25.9153 42.8347C25.3292 42.2487 25 41.4538 25 40.625ZM0 53.125C0 52.2962 0.32924 51.5013 0.915291 50.9153C1.50134 50.3292 2.2962 50 3.125 50H15.625C16.4538 50 17.2487 50.3292 17.8347 50.9153C18.4208 51.5013 18.75 52.2962 18.75 53.125C18.75 53.9538 18.4208 54.7487 17.8347 55.3347C17.2487 55.9208 16.4538 56.25 15.625 56.25H3.125C2.2962 56.25 1.50134 55.9208 0.915291 55.3347C0.32924 54.7487 0 53.9538 0 53.125ZM25 53.125C25 52.2962 25.3292 51.5013 25.9153 50.9153C26.5013 50.3292 27.2962 50 28.125 50H78.125C78.9538 50 79.7487 50.3292 80.3347 50.9153C80.9208 51.5013 81.25 52.2962 81.25 53.125C81.25 53.9538 80.9208 54.7487 80.3347 55.3347C79.7487 55.9208 78.9538 56.25 78.125 56.25H28.125C27.2962 56.25 26.5013 55.9208 25.9153 55.3347C25.3292 54.7487 25 53.9538 25 53.125ZM0 65.625C0 64.7962 0.32924 64.0013 0.915291 63.4153C1.50134 62.8292 2.2962 62.5 3.125 62.5H15.625C16.4538 62.5 17.2487 62.8292 17.8347 63.4153C18.4208 64.0013 18.75 64.7962 18.75 65.625C18.75 66.4538 18.4208 67.2487 17.8347 67.8347C17.2487 68.4208 16.4538 68.75 15.625 68.75H3.125C2.2962 68.75 1.50134 68.4208 0.915291 67.8347C0.32924 67.2487 0 66.4538 0 65.625ZM25 65.625C25 64.7962 25.3292 64.0013 25.9153 63.4153C26.5013 62.8292 27.2962 62.5 28.125 62.5H90.625C91.4538 62.5 92.2487 62.8292 92.8347 63.4153C93.4208 64.0013 93.75 64.7962 93.75 65.625C93.75 66.4538 93.4208 67.2487 92.8347 67.8347C92.2487 68.4208 91.4538 68.75 90.625 68.75H28.125C27.2962 68.75 26.5013 68.4208 25.9153 67.8347C25.3292 67.2487 25 66.4538 25 65.625ZM0 78.125C0 77.2962 0.32924 76.5013 0.915291 75.9153C1.50134 75.3292 2.2962 75 3.125 75H15.625C16.4538 75 17.2487 75.3292 17.8347 75.9153C18.4208 76.5013 18.75 77.2962 18.75 78.125C18.75 78.9538 18.4208 79.7487 17.8347 80.3347C17.2487 80.9208 16.4538 81.25 15.625 81.25H3.125C2.2962 81.25 1.50134 80.9208 0.915291 80.3347C0.32924 79.7487 0 78.9538 0 78.125ZM25 78.125C25 77.2962 25.3292 76.5013 25.9153 75.9153C26.5013 75.3292 27.2962 75 28.125 75H65.625C66.4538 75 67.2487 75.3292 67.8347 75.9153C68.4208 76.5013 68.75 77.2962 68.75 78.125C68.75 78.9538 68.4208 79.7487 67.8347 80.3347C67.2487 80.9208 66.4538 81.25 65.625 81.25H28.125C27.2962 81.25 26.5013 80.9208 25.9153 80.3347C25.3292 79.7487 25 78.9538 25 78.125ZM0 90.625C0 89.7962 0.32924 89.0013 0.915291 88.4153C1.50134 87.8292 2.2962 87.5 3.125 87.5H15.625C16.4538 87.5 17.2487 87.8292 17.8347 88.4153C18.4208 89.0013 18.75 89.7962 18.75 90.625C18.75 91.4538 18.4208 92.2487 17.8347 92.8347C17.2487 93.4208 16.4538 93.75 15.625 93.75H3.125C2.2962 93.75 1.50134 93.4208 0.915291 92.8347C0.32924 92.2487 0 91.4538 0 90.625ZM25 90.625C25 89.7962 25.3292 89.0013 25.9153 88.4153C26.5013 87.8292 27.2962 87.5 28.125 87.5H96.875C97.7038 87.5 98.4987 87.8292 99.0847 88.4153C99.6708 89.0013 100 89.7962 100 90.625C100 91.4538 99.6708 92.2487 99.0847 92.8347C98.4987 93.4208 97.7038 93.75 96.875 93.75H28.125C27.2962 93.75 26.5013 93.4208 25.9153 92.8347C25.3292 92.2487 25 91.4538 25 90.625Z" fill="black"/>
</svg>
