<svg width="100" height="100" viewBox="0 0 100 100" fill="none" xmlns="http://www.w3.org/2000/svg">
<path d="M61.425 4.5125C61.8357 4.51177 62.2424 4.59198 62.6221 4.74855C63.0017 4.90513 63.3468 5.13499 63.6375 5.425L94.575 36.3625C95.1608 36.9485 95.49 37.7432 95.49 38.5719C95.49 39.4005 95.1608 40.1952 94.575 40.7813C91.575 43.7813 87.875 44.4563 85.1812 44.4563C84.075 44.4563 83.0875 44.3438 82.3062 44.2125L62.7188 63.8C63.2344 65.8776 63.569 67.9959 63.7187 70.1312C64.0062 74.5188 63.5188 80.675 59.2188 84.975C58.6327 85.5608 57.838 85.89 57.0094 85.89C56.1807 85.89 55.386 85.5608 54.8 84.975L37.1187 67.3L17.2312 87.1875C16.0125 88.4062 9.6125 92.825 8.39375 91.6062C7.175 90.3875 11.5937 83.9813 12.8125 82.7688L32.7 62.8813L15.025 45.2C14.4392 44.614 14.11 43.8193 14.11 42.9906C14.11 42.162 14.4392 41.3673 15.025 40.7813C19.325 36.4813 25.4812 35.9875 29.8687 36.2813C32.0041 36.4309 34.1225 36.7655 36.2 37.2813L55.7875 17.7C55.624 16.7482 55.5404 15.7845 55.5375 14.8188C55.5375 12.1313 56.2125 8.43125 59.2188 5.425C59.8044 4.84082 60.5978 4.51268 61.425 4.5125Z" fill="black"/>
</svg>
