<svg width="100" height="100" viewBox="0 0 100 100" fill="none" xmlns="http://www.w3.org/2000/svg">
<g clip-path="url(#clip0_482_961)">
<path fill-rule="evenodd" clip-rule="evenodd" d="M19.375 70C19.6661 69.6119 20.0435 69.2969 20.4775 69.0799C20.9114 68.863 21.3899 68.75 21.875 68.75H37.5C38.3288 68.75 39.1237 69.0792 39.7097 69.6653C40.2958 70.2513 40.625 71.0462 40.625 71.875C40.625 72.7038 40.2958 73.4987 39.7097 74.0847C39.1237 74.6708 38.3288 75 37.5 75H23.4375L9.375 93.75H90.625L76.5625 75H62.5C61.6712 75 60.8763 74.6708 60.2903 74.0847C59.7042 73.4987 59.375 72.7038 59.375 71.875C59.375 71.0462 59.7042 70.2513 60.2903 69.6653C60.8763 69.0792 61.6712 68.75 62.5 68.75H78.125C78.6101 68.75 79.0886 68.863 79.5225 69.0799C79.9565 69.2969 80.3339 69.6119 80.625 70L99.375 95C99.7232 95.4643 99.9353 96.0164 99.9874 96.5944C100.039 97.1724 99.9296 97.7535 99.6701 98.2725C99.4105 98.7916 99.0116 99.2282 98.5179 99.5333C98.0242 99.8384 97.4554 100 96.875 100H3.125C2.54465 100 1.97577 99.8384 1.48209 99.5333C0.988417 99.2282 0.589457 98.7916 0.329917 98.2725C0.0703762 97.7535 -0.03949 97.1724 0.0126286 96.5944C0.0647473 96.0164 0.276792 95.4643 0.625001 95L19.375 70Z" fill="black"/>
<path fill-rule="evenodd" clip-rule="evenodd" d="M25 25C25.0005 20.1889 26.3891 15.4801 28.9993 11.4387C31.6096 7.39726 35.3305 4.19483 39.7157 2.21567C44.1008 0.236512 48.9639 -0.435296 53.7214 0.280857C58.4789 0.99701 62.9287 3.0707 66.5368 6.25311C70.145 9.43551 72.7583 13.5914 74.063 18.2222C75.3678 22.853 75.3087 27.7619 73.8928 32.3599C72.4769 36.9579 69.7643 41.0497 66.0806 44.1443C62.3968 47.2389 57.8984 49.2049 53.125 49.8063V84.375C53.125 85.2038 52.7958 85.9987 52.2097 86.5847C51.6237 87.1708 50.8288 87.5 50 87.5C49.1712 87.5 48.3763 87.1708 47.7903 86.5847C47.2042 85.9987 46.875 85.2038 46.875 84.375V49.8125C40.831 49.051 35.2731 46.109 31.2451 41.539C27.2171 36.969 24.9964 31.0855 25 24.9938V25Z" fill="black"/>
</g>
<defs>
<clipPath id="clip0_482_961">
<rect width="100" height="100" fill="white"/>
</clipPath>
</defs>
</svg>
