<svg width="100" height="100" viewBox="0 0 100 100" fill="none" xmlns="http://www.w3.org/2000/svg">
<path d="M46.875 6.25V50H53.125V6.25H46.875Z" fill="black"/>
<path d="M18.75 55.075C18.7485 49.4935 20.2422 44.0136 23.0757 39.2049C25.9093 34.3962 29.9793 30.4343 34.8625 27.7312L31.8312 22.2687C24.5845 26.2817 18.8705 32.5811 15.5811 40.1836C12.2917 47.7861 11.6122 56.2638 13.6485 64.2933C15.6849 72.3227 20.3225 79.4519 26.8375 84.5679C33.3525 89.6839 41.378 92.4988 49.6613 92.5731C57.9446 92.6475 66.0194 89.977 72.6251 84.9787C79.2308 79.9804 83.9956 72.9356 86.1757 64.944C88.3558 56.9524 87.8285 48.4639 84.6761 40.8036C81.5237 33.1432 75.9235 26.7423 68.75 22.6L65.6187 28.0062C70.3702 30.748 74.3162 34.6922 77.06 39.4425C79.8039 44.1927 81.249 49.5815 81.25 55.0673C81.251 60.553 79.808 65.9424 77.0659 70.6936C74.3238 75.4449 70.3793 79.3906 65.6289 82.1342C60.8785 84.8777 55.4896 86.3225 50.0039 86.3231C44.5181 86.3238 39.1288 84.8804 34.3778 82.138C29.6267 79.3956 25.6812 75.4509 22.938 70.7003C20.1947 65.9497 18.7503 60.5607 18.75 55.075Z" fill="black"/>
</svg>
