<svg width="100" height="100" viewBox="0 0 100 100" fill="none" xmlns="http://www.w3.org/2000/svg">
<path d="M100 50C100 63.2608 94.7322 75.9785 85.3553 85.3553C75.9785 94.7322 63.2608 100 50 100C36.7392 100 24.0215 94.7322 14.6447 85.3553C5.26784 75.9785 0 63.2608 0 50C0 36.7392 5.26784 24.0215 14.6447 14.6447C24.0215 5.26784 36.7392 0 50 0C63.2608 0 75.9785 5.26784 85.3553 14.6447C94.7322 24.0215 100 36.7392 100 50ZM34.35 37.7062H39.5063C40.3688 37.7062 41.0562 37 41.1688 36.1437C41.7313 32.0438 44.5438 29.0563 49.5562 29.0563C53.8438 29.0563 57.7687 31.2 57.7687 36.3563C57.7687 40.325 55.4312 42.15 51.7375 44.925C47.5312 47.9813 44.2 51.55 44.4375 57.3438L44.4562 58.7C44.4628 59.1101 44.6303 59.5011 44.9226 59.7887C45.215 60.0764 45.6086 60.2375 46.0187 60.2375H51.0875C51.5019 60.2375 51.8993 60.0729 52.1924 59.7799C52.4854 59.4868 52.65 59.0894 52.65 58.675V58.0187C52.65 53.5312 54.3563 52.225 58.9625 48.7313C62.7687 45.8375 66.7375 42.625 66.7375 35.8813C66.7375 26.4375 58.7625 21.875 50.0312 21.875C42.1125 21.875 33.4375 25.5625 32.8438 36.1625C32.8352 36.3643 32.868 36.5658 32.9402 36.7545C33.0124 36.9432 33.1224 37.1151 33.2635 37.2597C33.4046 37.4043 33.5737 37.5185 33.7606 37.5953C33.9474 37.6721 34.148 37.7098 34.35 37.7062ZM48.8813 77.975C52.6938 77.975 55.3125 75.5125 55.3125 72.1813C55.3125 68.7312 52.6875 66.3063 48.8813 66.3063C45.2313 66.3063 42.575 68.7312 42.575 72.1813C42.575 75.5125 45.2313 77.975 48.8875 77.975H48.8813Z" fill="black"/>
</svg>
