<svg width="100" height="100" viewBox="0 0 100 100" fill="none" xmlns="http://www.w3.org/2000/svg">
<g clip-path="url(#clip0_491_121)">
<path d="M18.5625 8.4375C19.1493 7.75147 19.8777 7.20069 20.6977 6.82307C21.5177 6.44545 22.4097 6.24994 23.3125 6.25H76.6875C77.5903 6.24994 78.4823 6.44545 79.3023 6.82307C80.1223 7.20069 80.8507 7.75147 81.4375 8.4375L97.7438 27.4625C99.1996 29.1615 99.9999 31.3251 100 33.5625V35.1562C100 38.2499 99.0341 41.2663 97.2364 43.7839C95.4386 46.3015 92.8992 48.1945 89.973 49.1984C87.0468 50.2023 83.8801 50.2668 80.9154 49.3829C77.9507 48.4991 75.3363 46.7111 73.4375 44.2688C72.0509 46.0548 70.2739 47.4999 68.2427 48.4933C66.2115 49.4867 63.9799 50.0021 61.7188 50C59.4575 50.0025 57.2258 49.4873 55.1945 48.4939C53.1632 47.5005 51.3863 46.0552 50 44.2688C48.6137 46.0552 46.8368 47.5005 44.8055 48.4939C42.7742 49.4873 40.5425 50.0025 38.2812 50C36.02 50.0025 33.7883 49.4873 31.757 48.4939C29.7257 47.5005 27.9488 46.0552 26.5625 44.2688C24.6637 46.7111 22.0493 48.4991 19.0846 49.3829C16.1199 50.2668 12.9532 50.2023 10.027 49.1984C7.10083 48.1945 4.56139 46.3015 2.76364 43.7839C0.965886 41.2663 -0.000341241 38.2499 9.04034e-08 35.1562V33.5625C7.87971e-05 31.3251 0.800354 29.1615 2.25625 27.4625L18.5688 8.43125L18.5625 8.4375ZM29.6875 35.1562C29.6875 37.4355 30.5929 39.6213 32.2046 41.2329C33.8162 42.8446 36.002 43.75 38.2812 43.75C40.5605 43.75 42.7463 42.8446 44.3579 41.2329C45.9696 39.6213 46.875 37.4355 46.875 35.1562C46.875 34.3274 47.2042 33.5326 47.7903 32.9465C48.3763 32.3605 49.1712 32.0312 50 32.0312C50.8288 32.0312 51.6237 32.3605 52.2097 32.9465C52.7958 33.5326 53.125 34.3274 53.125 35.1562C53.125 37.4355 54.0304 39.6213 55.6421 41.2329C57.2537 42.8446 59.4395 43.75 61.7188 43.75C63.998 43.75 66.1838 42.8446 67.7954 41.2329C69.4071 39.6213 70.3125 37.4355 70.3125 35.1562C70.3125 34.3274 70.6417 33.5326 71.2278 32.9465C71.8138 32.3605 72.6087 32.0312 73.4375 32.0312C74.2663 32.0312 75.0612 32.3605 75.6472 32.9465C76.2333 33.5326 76.5625 34.3274 76.5625 35.1562C76.5625 37.4355 77.4679 39.6213 79.0796 41.2329C80.6912 42.8446 82.877 43.75 85.1562 43.75C87.4355 43.75 89.6213 42.8446 91.2329 41.2329C92.8446 39.6213 93.75 37.4355 93.75 35.1562V33.5625C93.7501 32.8177 93.4841 32.0973 93 31.5312L76.6875 12.5H23.3125L7 31.5312C6.51592 32.0973 6.24994 32.8177 6.25 33.5625V35.1562C6.25 37.4355 7.15541 39.6213 8.76705 41.2329C10.3787 42.8446 12.5645 43.75 14.8438 43.75C17.123 43.75 19.3088 42.8446 20.9205 41.2329C22.5321 39.6213 23.4375 37.4355 23.4375 35.1562C23.4375 34.3274 23.7667 33.5326 24.3528 32.9465C24.9388 32.3605 25.7337 32.0312 26.5625 32.0312C27.3913 32.0312 28.1862 32.3605 28.7722 32.9465C29.3583 33.5326 29.6875 34.3274 29.6875 35.1562ZM9.375 53.125C10.2038 53.125 10.9987 53.4542 11.5847 54.0403C12.1708 54.6263 12.5 55.4212 12.5 56.25V93.75H18.75V62.5C18.75 60.8424 19.4085 59.2527 20.5806 58.0806C21.7527 56.9085 23.3424 56.25 25 56.25H43.75C45.4076 56.25 46.9973 56.9085 48.1694 58.0806C49.3415 59.2527 50 60.8424 50 62.5V93.75H87.5V56.25C87.5 55.4212 87.8292 54.6263 88.4153 54.0403C89.0013 53.4542 89.7962 53.125 90.625 53.125C91.4538 53.125 92.2487 53.4542 92.8347 54.0403C93.4208 54.6263 93.75 55.4212 93.75 56.25V93.75H96.875C97.7038 93.75 98.4987 94.0792 99.0847 94.6653C99.6708 95.2513 100 96.0462 100 96.875C100 97.7038 99.6708 98.4987 99.0847 99.0847C98.4987 99.6708 97.7038 100 96.875 100H3.125C2.2962 100 1.50134 99.6708 0.915291 99.0847C0.32924 98.4987 9.04034e-08 97.7038 9.04034e-08 96.875C9.04034e-08 96.0462 0.32924 95.2513 0.915291 94.6653C1.50134 94.0792 2.2962 93.75 3.125 93.75H6.25V56.25C6.25 55.4212 6.57924 54.6263 7.16529 54.0403C7.75134 53.4542 8.5462 53.125 9.375 53.125ZM25 93.75H43.75V62.5H25V93.75ZM56.25 62.5C56.25 60.8424 56.9085 59.2527 58.0806 58.0806C59.2527 56.9085 60.8424 56.25 62.5 56.25H75C76.6576 56.25 78.2473 56.9085 79.4194 58.0806C80.5915 59.2527 81.25 60.8424 81.25 62.5V81.25C81.25 82.9076 80.5915 84.4973 79.4194 85.6694C78.2473 86.8415 76.6576 87.5 75 87.5H62.5C60.8424 87.5 59.2527 86.8415 58.0806 85.6694C56.9085 84.4973 56.25 82.9076 56.25 81.25V62.5ZM75 62.5H62.5V81.25H75V62.5Z" fill="black"/>
</g>
<defs>
<clipPath id="clip0_491_121">
<rect width="100" height="100" fill="white"/>
</clipPath>
</defs>
</svg>
