<svg width="100" height="100" viewBox="0 0 100 100" fill="none" xmlns="http://www.w3.org/2000/svg">
<path d="M0 12.5C0 9.18479 1.31696 6.00537 3.66117 3.66117C6.00537 1.31696 9.18479 0 12.5 0L87.5 0C90.8152 0 93.9946 1.31696 96.3388 3.66117C98.683 6.00537 100 9.18479 100 12.5V87.5C100 90.8152 98.683 93.9946 96.3388 96.3388C93.9946 98.683 90.8152 100 87.5 100H12.5C9.18479 100 6.00537 98.683 3.66117 96.3388C1.31696 93.9946 0 90.8152 0 87.5V12.5ZM93.75 25H68.75V43.75H93.75V25ZM93.75 50H68.75V68.75H93.75V50ZM93.75 75H68.75V93.75H87.5C89.1576 93.75 90.7473 93.0915 91.9194 91.9194C93.0915 90.7473 93.75 89.1576 93.75 87.5V75ZM62.5 93.75V75H37.5V93.75H62.5ZM31.25 93.75V75H6.25V87.5C6.25 89.1576 6.90848 90.7473 8.08058 91.9194C9.25268 93.0915 10.8424 93.75 12.5 93.75H31.25ZM6.25 68.75H31.25V50H6.25V68.75ZM6.25 43.75H31.25V25H6.25V43.75ZM37.5 25V43.75H62.5V25H37.5ZM62.5 50H37.5V68.75H62.5V50Z" fill="black"/>
</svg>
