<svg width="100" height="100" viewBox="0 0 100 100" fill="none" xmlns="http://www.w3.org/2000/svg">
<g clip-path="url(#clip0_482_952)">
<path d="M12.5 12.5C12.5 10.8424 13.1585 9.25268 14.3306 8.08058C15.5027 6.90848 17.0924 6.25 18.75 6.25H47.4125C49.07 6.25035 50.6594 6.90907 51.8313 8.08125L95.5813 51.8313C96.753 53.0033 97.4112 54.5927 97.4112 56.25C97.4112 57.9073 96.753 59.4967 95.5813 60.6688L66.9188 89.3313C65.7467 90.503 64.1573 91.1612 62.5 91.1612C60.8427 91.1612 59.2533 90.503 58.0813 89.3313L14.3313 45.5813C13.1591 44.4094 12.5004 42.82 12.5 41.1625V12.5ZM34.375 37.5C36.8614 37.5 39.246 36.5123 41.0041 34.7541C42.7623 32.996 43.75 30.6114 43.75 28.125C43.75 25.6386 42.7623 23.254 41.0041 21.4959C39.246 19.7377 36.8614 18.75 34.375 18.75C31.8886 18.75 29.504 19.7377 27.7459 21.4959C25.9877 23.254 25 25.6386 25 28.125C25 30.6114 25.9877 32.996 27.7459 34.7541C29.504 36.5123 31.8886 37.5 34.375 37.5Z" fill="black"/>
<path d="M8.08125 48.7063C6.90907 47.5344 6.25035 45.945 6.25 44.2875V12.5C4.5924 12.5 3.00269 13.1585 1.83058 14.3306C0.65848 15.5027 0 17.0924 0 18.75L0 47.4125C0.000353984 49.07 0.659067 50.6594 1.83125 51.8313L45.5813 95.5813C46.7533 96.753 48.3427 97.4112 50 97.4112C51.6573 97.4112 53.2467 96.753 54.4187 95.5813L54.6875 95.3125L8.08125 48.7063Z" fill="black"/>
</g>
<defs>
<clipPath id="clip0_482_952">
<rect width="100" height="100" fill="white"/>
</clipPath>
</defs>
</svg>
