<svg width="100" height="100" viewBox="0 0 100 100" fill="none" xmlns="http://www.w3.org/2000/svg">
<g clip-path="url(#clip0_490_61)">
<path fill-rule="evenodd" clip-rule="evenodd" d="M11.7812 3.19375C12.8748 2.10181 14.188 1.25474 15.6337 0.70869C17.0795 0.162638 18.6247 -0.0699307 20.1671 0.0263956C21.7095 0.122722 23.2138 0.545744 24.5804 1.26743C25.9469 1.98911 27.1445 2.99298 28.0937 4.2125L39.3125 18.625C41.3687 21.2688 42.0938 24.7125 41.2812 27.9625L37.8625 41.65C37.6857 42.3589 37.6953 43.1015 37.8902 43.8057C38.0851 44.5098 38.4588 45.1516 38.975 45.6688L54.3312 61.025C54.849 61.5422 55.4918 61.9165 56.1972 62.1115C56.9026 62.3064 57.6464 62.3154 58.3562 62.1375L72.0375 58.7188C73.6413 58.3177 75.3154 58.2866 76.933 58.6277C78.5507 58.9687 80.0696 59.6731 81.375 60.6875L95.7875 71.9C100.969 75.9313 101.444 83.5875 96.8063 88.2188L90.3438 94.6813C85.7188 99.3063 78.8063 101.338 72.3625 99.0687C55.8699 93.2658 40.8955 83.824 28.55 71.4437C16.1706 59.1001 6.7288 44.1279 0.924998 27.6375C-1.3375 21.2 0.693748 14.2813 5.31875 9.65625L11.7812 3.19375Z" fill="black"/>
</g>
<defs>
<clipPath id="clip0_490_61">
<rect width="100" height="100" fill="white"/>
</clipPath>
</defs>
</svg>
