<svg width="100" height="100" viewBox="0 0 100 100" fill="none" xmlns="http://www.w3.org/2000/svg">
<g clip-path="url(#clip0_482_957)">
<path d="M6.25 3.43099e-06L0 6.25L13.75 25.5063C14.3289 26.3172 15.0932 26.9779 15.9792 27.4335C16.8653 27.889 17.8474 28.1261 18.8438 28.125H19.2812C20.103 28.1244 20.9168 28.2858 21.6761 28.6C22.4354 28.9142 23.1253 29.3751 23.7062 29.9563L40.425 46.675L24.0688 63.2625C21.2712 62.439 18.3203 62.2787 15.45 62.7944C12.5797 63.31 9.86908 64.4874 7.53312 66.2332C5.19716 67.979 3.30013 70.245 1.99252 72.8517C0.684914 75.4583 0.00270126 78.3338 0 81.25C0.00374665 83.9371 0.585023 86.592 1.70445 89.0349C2.82387 91.4777 4.45529 93.6514 6.48816 95.4087C8.52104 97.166 10.9079 98.4658 13.487 99.2201C16.0661 99.9743 18.7771 100.165 21.4365 99.7804C24.0959 99.3954 26.6415 98.4432 28.9008 96.9885C31.1601 95.5337 33.0803 93.6104 34.5313 91.3487C35.9823 89.087 36.9303 86.5399 37.3109 83.8799C37.6916 81.2199 37.496 78.5091 36.7375 75.9313L53.325 59.575L59.375 65.625L57.4688 71.3375C57.1025 72.4386 57.0499 73.6199 57.3171 74.7492C57.5842 75.8784 58.1604 76.911 58.9813 77.7313L79.9563 98.7063C81.1283 99.8779 82.7177 100.536 84.375 100.536C86.0323 100.536 87.6217 99.8779 88.7937 98.7063L98.7063 88.7937C99.8779 87.6217 100.536 86.0323 100.536 84.375C100.536 82.7177 99.8779 81.1283 98.7063 79.9563L77.7313 58.9813C76.911 58.1604 75.8784 57.5842 74.7492 57.3171C73.6199 57.0499 72.4386 57.1025 71.3375 57.4688L65.625 59.375L59.625 53.375L76.375 36.8563C79.1537 37.598 82.0656 37.6917 84.8862 37.1301C87.7068 36.5685 90.3607 35.3666 92.6434 33.6172C94.9261 31.8677 96.7765 29.6174 98.052 27.0398C99.3275 24.4621 99.9939 21.626 100 18.75C100 17.0688 99.7812 15.4375 99.3625 13.8938L85.9875 27.275L75 25L72.725 14.0188L86.1063 0.637503C82.9231 -0.218364 79.5706 -0.219961 76.3866 0.632872C73.2026 1.4857 70.2997 3.16283 67.9705 5.49519C65.6413 7.82755 63.9682 10.7327 63.1197 13.9178C62.2712 17.103 62.2773 20.4555 63.1375 23.6375L46.6375 40.375L29.9563 23.7063C28.7841 22.5344 28.1254 20.945 28.125 19.2875V18.8438C28.1251 17.8485 27.8875 16.8676 27.432 15.9827C26.9765 15.0978 26.3163 14.3345 25.5062 13.7563L6.25 3.43099e-06ZM66.5375 66.5375C66.8278 66.2465 67.1726 66.0156 67.5523 65.858C67.9319 65.7005 68.339 65.6194 68.75 65.6194C69.161 65.6194 69.5681 65.7005 69.9477 65.858C70.3274 66.0156 70.6722 66.2465 70.9625 66.5375L89.7125 85.2875C90.0031 85.578 90.2335 85.923 90.3908 86.3026C90.548 86.6822 90.6289 87.0891 90.6289 87.5C90.6289 87.9109 90.548 88.3178 90.3908 88.6974C90.2335 89.077 90.0031 89.422 89.7125 89.7125C89.422 90.0031 89.077 90.2335 88.6974 90.3908C88.3178 90.548 87.9109 90.6289 87.5 90.6289C87.0891 90.6289 86.6822 90.548 86.3026 90.3908C85.923 90.2335 85.578 90.0031 85.2875 89.7125L66.5375 70.9625C66.2465 70.6722 66.0156 70.3274 65.858 69.9477C65.7005 69.5681 65.6194 69.161 65.6194 68.75C65.6194 68.339 65.7005 67.932 65.858 67.5523C66.0156 67.1726 66.2465 66.8278 66.5375 66.5375ZM18.75 68.75L21.6938 70.2625L25 70.425L26.7938 73.2063L29.575 75L29.7375 78.3063L31.25 81.25L29.7375 84.1937L29.575 87.5L26.7938 89.2937L25 92.075L21.6938 92.2375L18.75 93.75L15.8063 92.2375L12.5 92.075L10.7063 89.2937L7.925 87.5L7.7625 84.1937L6.25 81.25L7.7625 78.3063L7.925 75L10.7063 73.2063L12.5 70.425L15.8063 70.2625L18.75 68.75Z" fill="black"/>
</g>
<defs>
<clipPath id="clip0_482_957">
<rect width="100" height="100" fill="white"/>
</clipPath>
</defs>
</svg>
