<svg width="100" height="100" viewBox="0 0 100 100" fill="none" xmlns="http://www.w3.org/2000/svg">
<g clip-path="url(#clip0_478_22)">
<path d="M85.0062 14.5375C80.4217 9.91048 74.9621 6.24215 68.9456 3.74628C62.9291 1.25042 56.4761 -0.0230819 49.9625 3.14004e-06C22.6687 3.14004e-06 0.425 22.2375 0.4 49.5375C0.4 58.2813 2.6875 66.7875 7.00625 74.3188L0 100L26.275 93.1125C33.5438 97.0682 41.6871 99.1416 49.9625 99.1438H49.9875C77.2875 99.1438 99.525 76.9062 99.55 49.5813C99.5563 43.069 98.2738 36.6199 95.7767 30.6055C93.2795 24.5911 89.617 19.1302 85 14.5375H85.0062ZM49.9625 90.7563C42.5812 90.7587 35.3356 88.7725 28.9875 85.0063L27.4875 84.1063L11.9 88.1938L16.0625 72.9875L15.0875 71.4188C10.9613 64.8583 8.77904 57.2627 8.79375 49.5125C8.79375 26.85 27.275 8.3625 49.9875 8.3625C55.3984 8.3528 60.7577 9.41422 65.7564 11.4856C70.7551 13.5569 75.2944 16.5973 79.1125 20.4313C82.944 24.2503 85.9814 28.7902 88.0495 33.7889C90.1177 38.7877 91.1757 44.1465 91.1625 49.5563C91.1375 72.3 72.6562 90.7563 49.9625 90.7563ZM72.5563 59.9188C71.325 59.3 65.2437 56.3063 64.1 55.8813C62.9625 55.475 62.1312 55.2625 61.3187 56.5C60.4875 57.7313 58.1125 60.5375 57.4 61.3438C56.6875 62.175 55.95 62.2688 54.7125 61.6563C53.4812 61.0313 49.4875 59.7313 44.7625 55.5C41.075 52.2188 38.6063 48.1562 37.8688 46.925C37.1562 45.6875 37.8 45.025 38.4188 44.4062C38.9625 43.8563 39.65 42.9562 40.2687 42.2438C40.8937 41.5312 41.1 41.0063 41.5062 40.1813C41.9125 39.3438 41.7188 38.6313 41.4125 38.0125C41.1 37.3937 38.6312 31.2875 37.5875 28.825C36.5875 26.3938 35.5687 26.7313 34.8062 26.7C34.0938 26.6562 33.2625 26.6562 32.4313 26.6562C31.8035 26.6719 31.1858 26.817 30.6168 27.0827C30.0479 27.3484 29.54 27.7287 29.125 28.2C27.9875 29.4375 24.8063 32.4313 24.8063 38.5375C24.8063 44.6437 29.2437 50.5125 29.8687 51.3438C30.4812 52.175 38.5812 64.6688 51.0125 70.0438C53.95 71.325 56.2625 72.0813 58.0688 72.6563C61.0375 73.6063 63.7188 73.4625 65.8562 73.1563C68.2312 72.7938 73.175 70.1563 74.2188 67.2625C75.2438 64.3625 75.2438 61.8875 74.9313 61.3688C74.625 60.8438 73.7938 60.5375 72.5563 59.9188Z" fill="black"/>
</g>
<defs>
<clipPath id="clip0_478_22">
<rect width="100" height="100" fill="white"/>
</clipPath>
</defs>
</svg>
